<svg xmlns="http://www.w3.org/2000/svg" height="15" width="16" viewBox="0 0 16 15"><title>Shape</title><path fill="#767676" d="M14.599 5.827h-.75a6.211 6.211 0 0 0-.598-1.432l.53-.511a.723.723 0 0 0 0-1.033L12.416 1.52a.765.765 0 0 0-1.057 0l-.529.52a6.32 6.32 0 0 0-1.467-.582V.732C9.381.332 9.04 0 8.63 0H6.72a.748.748 0 0 0-.75.732v.733a6.55 6.55 0 0 0-1.467.582l-.529-.515a.772.772 0 0 0-1.062 0L1.548 2.864a.718.718 0 0 0 0 1.033l.532.515c-.257.45-.46.916-.602 1.432H.753A.722.722 0 0 0 0 6.56V8.44c0 .4.34.715.75.715h.75c.137.5.342.984.598 1.433l-.53.516a.722.722 0 0 0 0 1.032l1.364 1.333a.768.768 0 0 0 1.059 0l.528-.517c.46.247.939.45 1.467.582v.733c0 .397.341.732.75.732h1.921a.746.746 0 0 0 .746-.732v-.733a6.628 6.628 0 0 0 1.468-.582l.529.512a.766.766 0 0 0 1.057 0l1.364-1.333a.717.717 0 0 0 0-1.032l-.524-.511a5.89 5.89 0 0 0 .598-1.438h.752c.408 0 .753-.332.753-.733V6.556c-.053-.4-.393-.732-.803-.732l.002.003zm-6.923 5.411c-2.116 0-3.84-1.682-3.84-3.745 0-2.065 1.724-3.742 3.839-3.742 2.108 0 3.834 1.685 3.834 3.75 0 2.064-1.726 3.743-3.842 3.743l.009-.006z" fill-rule="evenodd"/></svg>
